/* XPM */
static char *_3620d7e57894edbcf2465e1082b075eU94xRoSik3KJBznp[] = {
/* columns rows colors chars-per-pixel */
"9 9 2 1 ",
"  c None",
"X c  #FF0000",
/* pixels */
"   XXX   ",
"   XXX   ",
"   XXX   ",
"XXXXXXXXX",
"XXXXXXXXX",
"XXXXXXXXX",
"   XXX   ",
"   XXX   ",
"   XXX   ",
};
