/* XPM */
static char * wall_xpm[] = {
"49 48 120 2",
"  	c #52B179",
". 	c #62BB6D",
"+ 	c #71C65C",
"@ 	c #71C65B",
"# 	c #75C856",
"$ 	c #73C858",
"% 	c #6FC45E",
"& 	c #5BB672",
"* 	c #63BC6B",
"= 	c #6BC163",
"- 	c #56B376",
"; 	c #6DC360",
"> 	c #5DB871",
", 	c #5FB86F",
"' 	c #63BD4B",
") 	c #7BCB59",
"! 	c #72C756",
"~ 	c #59B944",
"{ 	c #5BB772",
"] 	c #55B377",
"^ 	c #6BBE65",
"/ 	c #74C857",
"( 	c #59B475",
"_ 	c #6EC35F",
": 	c #50AF5A",
"< 	c #92D660",
"[ 	c #BCEE6F",
"} 	c #ADE569",
"| 	c #55B54B",
"1 	c #4DA665",
"2 	c #6AC164",
"3 	c #6DC361",
"4 	c #6CC261",
"5 	c #49A867",
"6 	c #49A868",
"7 	c #4FAF5A",
"8 	c #8ED45F",
"9 	c #5FBC48",
"0 	c #B1E76A",
"a 	c #6EC453",
"b 	c #5DB174",
"c 	c #67BD68",
"d 	c #5FB671",
"e 	c #4CA680",
"f 	c #60B670",
"g 	c #50B056",
"h 	c #56B743",
"i 	c #52A87D",
"j 	c #65BA6B",
"k 	c #76C958",
"l 	c #74C758",
"m 	c #498F7B",
"n 	c #66C04D",
"o 	c #499179",
"p 	c #65B96C",
"q 	c #499C72",
"r 	c #57B843",
"s 	c #499577",
"t 	c #60B471",
"u 	c #4CA381",
"v 	c #75C955",
"w 	c #55AC7A",
"x 	c #4DA67F",
"y 	c #4EAE7C",
"z 	c #49A669",
"A 	c #57B078",
"B 	c #417579",
"C 	c #46847A",
"D 	c #427A79",
"E 	c #73C758",
"F 	c #59B375",
"G 	c #4EAF7B",
"H 	c #4CA87F",
"I 	c #50AC7C",
"J 	c #4FAC7C",
"K 	c #63BC6C",
"L 	c #68BC69",
"M 	c #74C858",
"N 	c #70C45D",
"O 	c #499F6F",
"P 	c #6EC161",
"Q 	c #61B76F",
"R 	c #47897B",
"S 	c #5BAF76",
"T 	c #55AF79",
"U 	c #68BC68",
"V 	c #4FAF7B",
"W 	c #53AE7A",
"X 	c #4E7577",
"Y 	c #537476",
"Z 	c #4F7C77",
"` 	c #4CB07C",
" .	c #7B946B",
"..	c #A46D51",
"+.	c #B37251",
"@.	c #957262",
"#.	c #6B7471",
"$.	c #AF6F50",
"%.	c #AF7252",
"&.	c #98715F",
"*.	c #759A6D",
"=.	c #D38658",
"-.	c #C57D54",
";.	c #AF6E4D",
">.	c #B06F50",
",.	c #BC744E",
"'.	c #D08457",
").	c #CC8256",
"!.	c #9A7A59",
"~.	c #94815D",
"{.	c #B77854",
"].	c #B26E4C",
"^.	c #B7704C",
"/.	c #CB7F54",
"(.	c #5EA977",
"_.	c #A17053",
":.	c #9F7053",
"<.	c #59AA78",
"[.	c #A56D4F",
"}.	c #4BA581",
"  . + @ @ # $ @ @ $ % & * = -     & ; > , $ ' ) ! ~ $ @ @ % {   ] ] ^ / = ( = $ % @ / / # @ @ = - ",
"= % $ # # # # # / / / _ % @ = = = = @ % : ' < [ } ! | 1 # # ; 2 ^ 3 % # $ _ % / / / / / $ # # @ 4 ",
"# # $ # $ # $ # / / / / # / # # # / 5 : ' < [ [ [ } ! | 5 6 / # # # / / $ / / / / / / / # $ # $ # ",
"# $ # $ # $ # $ / / / / / / / / / 7 ' ! 8 [ [ [ [ [ } ! / 9 1 / / / / / / / / / / / / / $ # $ # # ",
"$ + $ # $ # $ # / / / / / / / / : ' / / 8 [ [ [ [ [ 0 / / a | 5 / / / / / / / / / / / / / / # / $ ",
"b c # $ # $ # $ / / / / / / / 7 ' / / / 8 [ [ [ [ [ } / / / ! | 5 / / / / / / / / / / / / / / 4 d ",
"e f $ # $ # $ # / / / / / / g h ' / / / / < [ [ [ 0 ) / / / a ~ | 5 / / / / / / / / / / / / # 2 i ",
"] j # $ # $ # $ / / / / / : h ' / / / / / k 8 [ 0 ) / / / / / a ~ | 1 / / / / / / / / / / / # % - ",
"3 + l l / / / / / / m m 7 h h h n / / / / / k ) ) / / / / / a 9 h h | o m / / / / / / / @ / / + ; ",
"f f p + / / / / / m o q g h h ' ! / / / / / / / / / / / / / / a r h h 6 s m / / / / / / / / ^ t f ",
"u i f + / / / / m o q : h h h ' / ! / / / / / / / / / / / / / a r h h | 6 o m / / / / / / v c w x ",
"y . + l / / / / m q 6 7 h h h h ~ ' / / / / / / / / / / / / ~ ~ h h h h 5 z o / / / / / / / @ = A ",
"y . # # # # / B C q 5 6 g h h h ' ! / / / / / / / / / / / / a r h h h 5 6 z o D / / / / E # # =   ",
"y F j + # # / B C q 5 5 g h h h ' / / / ! / / / / / / / / / a r h h h 5 6 6 o D / / / / / / _ d   ",
"G y w ^ + / B C q z 6 : h h h h r ' ! n ' / / / / / a 9 a a ~ r h h h | 5 5 z o D / / / E 3 d H y ",
"G I J w ^ B C m z z 6 g h h h h r r ~ ~ 9 ! / / / / a r ~ r h r h h h h 5 6 5 o m D / / @ b i G y ",
"G G - j % B C q 5 5 5 7 h h h h h h h h h ' ! ! ! a r h h h h h h h | 5 5 5 6 z m D / / / ^ F I G ",
"G - K @ # B C z 6 5 5 5 5 7 h h h r h h h h r r r r h h h h h h h h 5 5 5 5 6 6 o B / / / / 3 &   ",
"G K $ / B B C q 5 5 5 5 5 5 7 h h h h h h h h h r h h h h h h h h | 5 6 5 5 5 6 o D B / / / / 3 ] ",
"G K / / B C m o z 6 5 5 5 5 7 h h h h h h h h h r r h h h h h h h 5 5 6 5 5 5 6 o m D / / / / ^ ] ",
"L ; $ # B C o q z 5 5 z 5 5 5 7 h h h h h h h h h h h h h h 7 | | 5 5 5 5 6 6 o m m D / / / / @ ^ ",
"= % M B B C o q z 6 5 5 z 5 5 5 5 5 7 h h h h h h h h h h h 5 6 5 6 5 5 5 6 z o m m D B / / v N = ",
"] c # B B C m o O 6 5 5 6 5 5 5 5 5 5 7 h h g 5 5 7 h h | 5 6 6 5 5 6 5 6 6 o o m m D B / / / P & ",
"= % $ B B C m m q 6 6 6 5 5 6 5 5 5 5 5 5 5 5 5 6 6 5 5 5 5 6 6 6 5 5 5 5 z o m m m D B / / / l = ",
"# # / B B C o m m q 6 6 6 6 5 5 6 5 5 5 5 6 6 5 6 6 6 5 5 5 6 5 5 5 6 5 z z o o m m D B / / / / / ",
"3 = _ B B C m m m o o q 6 5 5 5 5 5 6 5 5 5 5 5 6 6 5 6 6 5 5 5 6 5 5 z o o m m m D B B / / @ ^ 3 ",
"i i b B B B C m m m m q z 5 z z 5 6 5 5 6 5 5 6 6 6 5 6 5 5 5 z z 6 6 z o m o m m D B B / / j w i ",
"J F ^ + B B C m m m m m q 6 q q z 5 5 z z 5 5 5 6 5 z s 5 5 O s z z z o m m m m m B B / / / _ Q G ",
"G j / v B B C m m m m m o o o m q z z O s 6 5 5 z z z s 5 z m m o o o m m m m m D B B / / l # 3   ",
"  Q N / / B B C m m m m m m m m m o o o o s z z z z m m m o m m m m m m m m m m D B / / / / @ ^ ] ",
"G i F N / B B B B C m m m m m m o m m m m o o o o o m m m m m m m m o m m m R D B B / / / @ j I G ",
"y G w S _ / B B B C m m m m m m m m m m m m m m m m o m m m m m m m m D R m D B B / / / @ p A x I ",
"y G G F ; # # B B B C m m C C m m m m m m m m m o m m m m m m m m m m B B B B B / / / / N Q T J G ",
"I   d 3 @ $ $ # B B B B B B D m m m m m m m m m m m m o m R D R m R D B B B B / / / / / v l j I G ",
"I d 3 @ $ # $ # # D D D B B B C m m C B D m m m m m m R B D B B B B B B B D / / / / / / # # @ ^   ",
"G F U @ # $ # $ $ V V o D B B B B D B B B C R m R R D B B B B B B B D C W V / / / / / / / + 2 d G ",
"- - b @ # # $ # # V V V V o X Y X B B B B B B D B D B B B B B Y Y Z W W V V / / / / / / / / j S d ",
"@ + + $ # $ # $ $ V V V `  ...+.@.X Y X B B B B B B B B Y Y #.$.%.&.W V V V / / / / / / / / @ % _ ",
"# # $ # $ # $ # # $ ` V ` *.+.=.-.+.;.&.Y Y Y Y Y Y Y #.>.>.,.'.).!.W V V V / / / / / / / / # # / ",
"c ; # $ # $ # $ $ # ` ` ` ` ~.{.).-.].].$.;.$.^.>.>.>.>.].^./.).!.(.W V V / / / / / / / / / / @ ^ ",
"F U / / / / / / # $ # V V V V ~._.:.:._.].].-.).).^.].$.:.:.%.~.(.` W ` V $ # $ / / / / / / # 3 & ",
"N N / / / / / / $ # $ V V V ` ` <.<.<.*.[.-.=.=.=./.].~.<.<.<.<.W W ` V $ # $ # / / / / / / $ / _ ",
"/ / / / / / / / # $ # $ # ` ` ` ` W ` W *.$.).).'.-.~.<.V V V V ` W V $ # $ # $ / / / / # $ # $ / ",
"/ / / / / / / / $ # $ # $ # ` ` W ` W V W *._._._.~.<.V V V V V ` # $ # $ # $ # / / / / $ # $ # / ",
"@ $ $ $ # / # / # $ # @ @ @ @ + N V V V V W <.<.<.<.V ` V V V N % N l / @ @ E # / / # + # $ # @ + ",
"F ^ $ $ / / / / $ # + b ^ = S w T d N V V V V V W ` ` W ` + f w T S ^ / % b ^ # / # # # $ # # 3 S ",
"y ( . p 3 / + Q f ^ _ A ( f J e e i . T V V V V V V W ` K K I }.}.J Q c d I ^ 3 . d ; $ $ c * d J ",
"G I J e ^ / 3 i u F % ( y G I y G y G G x w + @ 2 ] 3 c G y     G G G y y   ^ L u u p # @ & G G G "};
